<svg viewBox="0 0 250 250" xmlns="http://www.w3.org/2000/svg" xmlns:bx="https://boxy-svg.com">
  <defs>
    <linearGradient id="gradient-2" bx:pinned="true">
      <stop offset="0" style="stop-color: rgb(215, 255, 249);"></stop>
    </linearGradient>
    <linearGradient id="gradient-3" bx:pinned="true">
      <stop offset="0.656" style="stop-color: rgb(90, 255, 6);"></stop>
    </linearGradient>
    <pattern id="pattern-0" viewBox="0 0 100 100" patternUnits="userSpaceOnUse" preserveAspectRatio="none" width="100" height="100" bx:pinned="true"></pattern>
  </defs>
  <title>Asset 1</title>
  <g transform="matrix(-0.254, -1.640729, 1.568103, -0.242756, -304.310556, 223.18331)" style="transform-origin: 429.353px -90.052px;">
    <g transform="matrix(1.382908, 0, 0, 1.382908, 431.206037, -87.61864)" style="">
      <path d="M50.8 -51.8C62 -39.6 64.6 -19.8 64.4 -0.2C64.2 19.4 61.2 38.9 50 50.1C38.9 61.3 19.4 64.4 0.3 64.1C-18.8 63.7 -37.6 60 -49.8 48.8C-62.1 37.6 -67.9 18.8 -67 0.9C-66.1 -17 -58.6 -34 -46.3 -46.3C-34 -58.5 -17 -66.1 1.4 -67.4C19.8 -68.8 39.6 -64.1 50.8 -51.8Z" style="paint-order: fill; fill: rgb(0, 250, 255);">
        <animate attributeName="d" values="M 50.8 -51.8 C 62 -39.6 64.6 -19.8 64.4 -0.2 C 64.2 19.4 61.2 38.9 50 50.1 C 38.9 61.3 19.4 64.4 0.3 64.1 C -18.8 63.7 -37.6 60 -49.8 48.8 C -62.1 37.6 -67.9 18.8 -67 0.9 C -66.1 -17 -58.6 -34 -46.3 -46.3 C -34 -58.5 -17 -66.1 1.4 -67.4 C 19.8 -68.8 39.6 -64.1 50.8 -51.8 Z;M 51.257 -54.085 C 62.457 -41.885 72.474 -26.17 67.704 1.885 C 62.934 29.94 53.888 32.502 42.688 43.702 C 31.588 54.902 17.799 60.391 -1.301 60.091 C -20.401 59.691 -30.409 50.008 -46.025 44.493 C -62.21 38.777 -56.431 37.83 -60.558 7.362 C -64.685 -23.106 -59.514 -35.143 -47.214 -47.443 C -34.914 -59.643 8.593 -64.272 15.339 -64.201 C 22.085 -64.13 40.057 -66.385 51.257 -54.085 Z;M 57.427 -52.257 C 64.285 -36.629 68.713 -15.001 68.513 4.599 C 68.313 24.199 52.06 30.902 40.86 42.102 C 29.76 53.302 19.4 70.113 0.3 69.813 C -18.8 69.413 -47.654 66.627 -59.854 55.427 C -72.154 44.227 -63.101 17.2 -62.201 -0.7 C -61.301 -18.6 -64.77 -34.686 -52.47 -46.986 C -40.17 -59.186 -18.828 -65.643 -1.5710000000000002 -63.972 C 15.686 -62.301 50.742 -67.49 57.427 -52.257 Z;M 52.857 -52.486 C 64.057 -40.286 62.315 -19.114 62.115 0.4860000000000003 C 61.915 20.086 61.2 38.9 50 50.1 C 38.9 61.3 15.515 64.4 0.3 59.53 C -14.915 54.66 -37.6 60 -49.8 48.8 C -62.1 37.6 -71.785 19.029 -70.885 1.129 C -69.985 -16.771 -56.543 -30.572 -44.243 -42.872 C -31.943 -55.072 -18.143 -64.957 0.257 -66.257 C 18.657 -67.657 41.657 -64.786 52.857 -52.486 Z;M 50.8 -51.8 C 62 -39.6 64.6 -19.8 64.4 -0.2 C 64.2 19.4 61.2 38.9 50 50.1 C 38.9 61.3 19.4 64.4 0.3 64.1 C -18.8 63.7 -37.6 60 -49.8 48.8 C -62.1 37.6 -67.9 18.8 -67 0.9 C -66.1 -17 -58.6 -34 -46.3 -46.3 C -34 -58.5 -17 -66.1 1.4 -67.4 C 19.8 -68.8 39.6 -64.1 50.8 -51.8 Z" begin="0s" dur="12.48s" fill="freeze" keyTimes="0; 0.22945; 0.51096; 0.75048; 1" repeatCount="indefinite"></animate>
        <animate attributeName="fill" values="rgb(0% 94.902% 100%);rgb(30.588% 0% 90.98%);#00f2ff" dur="8.99s" keyTimes="0; 0.5167; 1" repeatCount="indefinite" calcMode="spline" keySplines="0.42 0 0.58 1; 0.42 0 0.58 1" begin="0.01s"></animate>
      </path>
    </g>
  </g>
  <g transform="matrix(1.047513, -0.893781, 0.853249, 1.00001, -308.463602, 227.118369)" style="transform-origin: 429.353px -90.0521px;">
    <g transform="matrix(1.382908, 0, 0, 1.382908, 431.206037, -87.61864)" style="">
      <path d="M50.8 -51.8C62 -39.6 64.6 -19.8 64.4 -0.2C64.2 19.4 61.2 38.9 50 50.1C38.9 61.3 19.4 64.4 0.3 64.1C-18.8 63.7 -37.6 60 -49.8 48.8C-62.1 37.6 -67.9 18.8 -67 0.9C-66.1 -17 -58.6 -34 -46.3 -46.3C-34 -58.5 -17 -66.1 1.4 -67.4C19.8 -68.8 39.6 -64.1 50.8 -51.8Z" style="paint-order: fill; fill: rgb(227, 77, 232);">
        <animate attributeName="d" values="M 50.8 -51.8 C 62 -39.6 64.6 -19.8 64.4 -0.2 C 64.2 19.4 61.2 38.9 50 50.1 C 38.9 61.3 19.4 64.4 0.3 64.1 C -18.8 63.7 -37.6 60 -49.8 48.8 C -62.1 37.6 -67.9 18.8 -67 0.9 C -66.1 -17 -58.6 -34 -46.3 -46.3 C -34 -58.5 -17 -66.1 1.4 -67.4 C 19.8 -68.8 39.6 -64.1 50.8 -51.8 Z;M 44.396 -52.221 C 50.345 -36.765 81.738 -26.199 76.968 1.856 C 72.198 29.911 53.888 32.502 42.688 43.702 C 31.588 54.902 17.572 68.513 -1.528 68.213 C -20.628 67.813 -33.727 54.315 -49.343 48.8 C -65.528 43.084 -66.757 38.452 -70.884 7.984 C -75.011 -22.484 -59.514 -35.143 -47.214 -47.443 C -34.914 -59.643 -22.078 -77.691 -8.029 -79.089 C 6.02 -80.487 36.485 -72.776 44.396 -52.221 Z;M 57.427 -52.257 C 64.285 -36.629 68.713 -15.001 68.513 4.599 C 68.313 24.199 52.06 30.902 40.86 42.102 C 29.76 53.302 19.4 70.113 0.3 69.813 C -18.8 69.413 -47.654 66.627 -59.854 55.427 C -72.154 44.227 -63.101 17.2 -62.201 -0.7 C -61.301 -18.6 -64.77 -34.686 -52.47 -46.986 C -40.17 -59.186 -18.828 -65.643 -1.5710000000000002 -63.972 C 15.686 -62.301 50.742 -67.49 57.427 -52.257 Z;M 52.857 -52.486 C 64.057 -40.286 62.315 -19.114 62.115 0.4860000000000003 C 61.915 20.086 61.2 38.9 50 50.1 C 38.9 61.3 15.515 64.4 0.3 59.53 C -14.915 54.66 -37.6 60 -49.8 48.8 C -62.1 37.6 -71.785 19.029 -70.885 1.129 C -69.985 -16.771 -56.543 -30.572 -44.243 -42.872 C -31.943 -55.072 -18.143 -64.957 0.257 -66.257 C 18.657 -67.657 41.657 -64.786 52.857 -52.486 Z;M 50.8 -51.8 C 62 -39.6 64.6 -19.8 64.4 -0.2 C 64.2 19.4 61.2 38.9 50 50.1 C 38.9 61.3 19.4 64.4 0.3 64.1 C -18.8 63.7 -37.6 60 -49.8 48.8 C -62.1 37.6 -67.9 18.8 -67 0.9 C -66.1 -17 -58.6 -34 -46.3 -46.3 C -34 -58.5 -17 -66.1 1.4 -67.4 C 19.8 -68.8 39.6 -64.1 50.8 -51.8 Z" begin="0s" dur="12.48s" fill="freeze" keyTimes="0; 0.22945; 0.51096; 0.75048; 1" repeatCount="indefinite"></animate>
        <animate attributeName="fill" values="rgb(89.02% 30.196% 90.98%);#3be8b0;rgb(89.02% 30.196% 90.98%)" dur="8.99s" keyTimes="0; 0.5167; 1" repeatCount="indefinite" calcMode="spline" keySplines="0.42 0 0.58 1; 0.42 0 0.58 1" begin="0.01s"></animate>
      </path>
    </g>
  </g>
  <g transform="matrix(1.131692, 0, 0, 1.089647, -364.521892, 221.389914)" style="">
    <g transform="matrix(1.382908, 0, 0, 1.382908, 431.206037, -87.61864)" style="">
      <path d="M50.8 -51.8C62 -39.6 64.6 -19.8 64.4 -0.2C64.2 19.4 61.2 38.9 50 50.1C38.9 61.3 19.4 64.4 0.3 64.1C-18.8 63.7 -37.6 60 -49.8 48.8C-62.1 37.6 -67.9 18.8 -67 0.9C-66.1 -17 -58.6 -34 -46.3 -46.3C-34 -58.5 -17 -66.1 1.4 -67.4C19.8 -68.8 39.6 -64.1 50.8 -51.8Z" style="paint-order: fill;">
        <animate attributeName="d" values="M 50.8 -51.8 C 62 -39.6 64.6 -19.8 64.4 -0.2 C 64.2 19.4 61.2 38.9 50 50.1 C 38.9 61.3 19.4 64.4 0.3 64.1 C -18.8 63.7 -37.6 60 -49.8 48.8 C -62.1 37.6 -67.9 18.8 -67 0.9 C -66.1 -17 -58.6 -34 -46.3 -46.3 C -34 -58.5 -17 -66.1 1.4 -67.4 C 19.8 -68.8 39.6 -64.1 50.8 -51.8 Z;M 51.257 -54.085 C 62.457 -41.885 81.738 -26.199 76.968 1.856 C 72.198 29.911 53.888 32.502 42.688 43.702 C 31.588 54.902 17.572 68.513 -1.528 68.213 C -20.628 67.813 -33.727 54.315 -49.343 48.8 C -65.528 43.084 -66.757 38.452 -70.884 7.984 C -75.011 -22.484 -59.514 -35.143 -47.214 -47.443 C -34.914 -59.643 8.593 -64.272 15.339 -64.201 C 22.085 -64.13 40.057 -66.385 51.257 -54.085 Z;M 57.427 -52.257 C 64.285 -36.629 68.713 -15.001 68.513 4.599 C 68.313 24.199 52.06 30.902 40.86 42.102 C 29.76 53.302 19.4 70.113 0.3 69.813 C -18.8 69.413 -47.654 66.627 -59.854 55.427 C -72.154 44.227 -63.101 17.2 -62.201 -0.7 C -61.301 -18.6 -64.77 -34.686 -52.47 -46.986 C -40.17 -59.186 -18.828 -65.643 -1.5710000000000002 -63.972 C 15.686 -62.301 50.742 -67.49 57.427 -52.257 Z;M 52.857 -52.486 C 64.057 -40.286 62.315 -19.114 62.115 0.4860000000000003 C 61.915 20.086 61.2 38.9 50 50.1 C 38.9 61.3 15.515 64.4 0.3 59.53 C -14.915 54.66 -37.6 60 -49.8 48.8 C -62.1 37.6 -71.785 19.029 -70.885 1.129 C -69.985 -16.771 -56.543 -30.572 -44.243 -42.872 C -31.943 -55.072 -18.143 -64.957 0.257 -66.257 C 18.657 -67.657 41.657 -64.786 52.857 -52.486 Z;M 50.8 -51.8 C 62 -39.6 64.6 -19.8 64.4 -0.2 C 64.2 19.4 61.2 38.9 50 50.1 C 38.9 61.3 19.4 64.4 0.3 64.1 C -18.8 63.7 -37.6 60 -49.8 48.8 C -62.1 37.6 -67.9 18.8 -67 0.9 C -66.1 -17 -58.6 -34 -46.3 -46.3 C -34 -58.5 -17 -66.1 1.4 -67.4 C 19.8 -68.8 39.6 -64.1 50.8 -51.8 Z" begin="0s" dur="12.48s" fill="freeze" keyTimes="0; 0.22945; 0.51096; 0.75048; 1" repeatCount="indefinite"></animate>
        <animate attributeName="fill" values="rgb(0% 0% 0%);rgb(0% 0% 0%);#000" dur="8.99s" keyTimes="0; 0.5167; 1" repeatCount="indefinite" calcMode="spline" keySplines="0.42 0 0.58 1; 0.42 0 0.58 1" begin="0.01s"></animate>
      </path>
    </g>
  </g>
  <g id="Layer_2" data-name="Layer 2" style="" transform="matrix(0.738167, 0, 0, 0.738167, 37.786325, 52.49608)">
    <g id="Layer_1-2" data-name="Layer 1">
      <path d="M203,26.16l-28.46,14.5-137.43,70a82.49,82.49,0,0,1-.7-10.69A81.87,81.87,0,0,1,158.2,28.6l16.29-8.3,2.43-1.24A100,100,0,0,0,18.18,100q0,3.82.29,7.61a18.19,18.19,0,0,1-9.88,17.58L0,129.57V150l25.29-12.89,0,0,8.19-4.18,8.07-4.11v0L186.43,55l16.28-8.29,33.65-17.15V9.14Z" style="fill: rgb(255, 255, 255);"></path>
      <path d="M236.36,50,49.78,145,33.5,153.31,0,170.38v20.41l33.27-16.95,28.46-14.5L199.3,89.24A83.45,83.45,0,0,1,200,100,81.87,81.87,0,0,1,78.09,171.36l-1,.53-17.66,9A100,100,0,0,0,218.18,100c0-2.57-.1-5.14-.29-7.68a18.2,18.2,0,0,1,9.87-17.58l8.6-4.38Z" style="fill: rgb(255, 255, 255);"></path>
    </g>
  </g>
</svg>