<svg version="1.1" id="Layer_1" xmlns="http://www.w3.org/2000/svg" xmlns:xlink="http://www.w3.org/1999/xlink" x="0px" y="0px"
	 width="100%" viewBox="0 0 100 100" enable-background="new 0 0 100 100" xml:space="preserve">
<path fill="#050D0C" opacity="1.000000" stroke="none" 
	d="
M101.000000,51.000000 
	C101.000000,61.687561 101.000000,72.375122 100.649200,83.691650 
	C94.542313,84.875183 88.786224,85.429749 82.964867,85.640373 
	C81.411667,83.887421 79.812233,82.574707 78.479424,81.031693 
	C77.732124,80.166534 77.426132,78.920174 76.953529,77.499863 
	C80.253708,72.405663 83.521660,67.657158 87.145210,62.897099 
	C89.049286,61.708885 90.688087,60.632416 92.127480,59.334740 
	C95.140656,56.618240 98.048752,53.785191 101.000000,51.000000 
z"/>
<path fill="#0E4232" opacity="1.000000" stroke="none" 
	d="
M93.000000,1.000000 
	C95.599510,1.000000 98.199013,1.000000 101.000000,1.000000 
	C101.000000,4.343195 101.000000,7.688642 100.588539,11.513172 
	C97.404900,12.118726 94.205437,11.387262 93.351723,15.374671 
	C93.341415,15.362900 93.325851,15.389298 93.055527,15.356359 
	C92.527634,15.562660 92.270058,15.801902 91.786301,16.299053 
	C75.910782,24.462023 60.261436,32.367081 44.301552,40.079018 
	C44.031822,39.034027 43.860111,38.101494 44.147861,37.343346 
	C46.048256,32.336262 45.322159,31.212690 39.934078,30.629513 
	C41.976917,26.417933 43.961937,22.560427 46.364044,18.520988 
	C48.535492,18.615170 50.289856,18.891285 52.025459,19.532085 
	C50.957535,24.141434 46.439232,27.666925 49.387081,33.964764 
	C55.118950,29.644348 60.282738,25.752127 65.772446,21.788898 
	C68.219742,20.698292 70.341110,19.678688 72.682037,18.553558 
	C71.912422,17.606153 71.328835,16.887749 71.057144,16.003479 
	C73.911110,13.210467 76.453186,10.583318 79.035904,8.305983 
	C78.705421,11.226375 78.334274,13.796951 77.944107,16.499271 
	C79.351341,16.317951 81.290482,16.617144 82.491158,15.813308 
	C86.544418,13.099696 90.570457,10.236320 94.049370,6.856352 
	C94.845078,6.083272 93.408951,3.013012 93.000000,1.000000 
z"/>
<path fill="#060E0D" opacity="1.000000" stroke="none" 
	d="
M34.000000,101.000000 
	C27.312355,101.000000 20.624710,101.000000 13.424858,100.648727 
	C11.894814,98.650917 11.115206,96.777985 9.809983,95.404564 
	C7.017440,92.466080 3.953047,89.785950 1.000000,87.000000 
	C1.000000,83.307091 1.000000,79.614182 1.346036,75.315842 
	C3.238277,74.942459 4.784482,75.174500 6.213902,75.810364 
	C6.097117,78.415451 6.097117,80.616722 6.097117,83.304466 
	C8.351084,82.340530 10.097961,81.593452 12.116444,81.000580 
	C12.916681,81.493713 13.445313,81.832649 14.073954,82.354309 
	C14.347843,82.764648 14.569617,82.926750 15.047609,83.303940 
	C16.493738,84.067284 17.731543,84.550018 18.984959,85.020996 
	C19.000568,85.009239 18.971691,85.042114 19.018909,85.381897 
	C24.816082,88.439171 26.335686,96.804176 34.020828,97.335983 
	C34.009251,98.828697 34.004627,99.914352 34.000000,101.000000 
z"/>
<path fill="#0C3D2C" opacity="1.000000" stroke="none" 
	d="
M83.030128,85.984314 
	C88.786224,85.429749 94.542313,84.875183 100.649200,84.160309 
	C101.000000,86.370560 101.000000,88.741112 100.650566,91.602676 
	C95.867424,95.062447 91.433708,98.031219 87.000000,101.000000 
	C81.645073,101.000000 76.290138,101.000000 70.527771,100.667511 
	C72.199203,98.017349 74.361259,95.767975 76.334732,93.363792 
	C78.527893,90.691971 78.711067,88.669510 74.489357,87.879448 
	C73.534737,87.700798 72.859741,86.027939 72.337051,85.124771 
	C74.734528,85.428017 76.848007,85.686142 78.968498,85.857475 
	C80.316986,85.966431 81.675896,85.946472 83.030128,85.984314 
z"/>
<path fill="#081511" opacity="1.000000" stroke="none" 
	d="
M53.000000,101.000000 
	C49.969406,101.000000 46.938812,101.000000 43.413544,100.658752 
	C43.515736,98.475235 43.827560,96.468399 44.774532,94.828270 
	C46.293903,92.196777 48.233650,89.807999 50.429607,87.208481 
	C55.459843,86.338440 60.056210,85.576553 64.920288,85.012100 
	C64.446167,87.439499 63.704338,89.669464 62.936234,91.918793 
	C62.909966,91.938141 62.908329,92.003380 62.710308,92.116837 
	C62.274483,92.424454 62.067993,92.647591 61.677166,93.006912 
	C61.192726,93.304176 60.988178,93.548111 60.540924,93.960892 
	C59.770737,95.001060 59.307499,95.926277 58.617516,97.064430 
	C57.942173,98.177269 57.493584,99.077171 56.959335,99.653221 
	C54.338791,97.002563 53.515480,98.644402 53.000000,101.000000 
z"/>
<path fill="#164933" opacity="1.000000" stroke="none" 
	d="
M57.044991,99.977066 
	C57.493584,99.077171 57.942173,98.177269 58.909851,97.206345 
	C61.773575,97.429184 61.773575,97.429184 60.847881,93.845924 
	C60.988178,93.548111 61.192726,93.304176 61.904579,92.932602 
	C62.630066,92.573471 62.816959,92.324234 62.908329,92.003380 
	C62.908329,92.003380 62.909966,91.938141 63.242287,91.787857 
	C66.401756,89.439354 69.228889,87.241127 72.056030,85.042892 
	C72.859741,86.027939 73.534737,87.700798 74.489357,87.879448 
	C78.711067,88.669510 78.527893,90.691971 76.334732,93.363792 
	C74.361259,95.767975 72.199203,98.017349 70.060165,100.667511 
	C65.975456,101.000000 61.950912,101.000000 57.472275,100.744171 
	C57.027119,100.317917 57.036053,100.147491 57.044991,99.977066 
z"/>
<path fill="#0A3426" opacity="1.000000" stroke="none" 
	d="
M92.539368,1.000000 
	C93.408951,3.013012 94.845078,6.083272 94.049370,6.856352 
	C90.570457,10.236320 86.544418,13.099696 82.491158,15.813308 
	C81.290482,16.617144 79.351341,16.317951 77.944107,16.499271 
	C78.334274,13.796951 78.705421,11.226375 79.081482,7.947865 
	C79.724266,5.159955 80.362137,3.079978 81.000000,1.000001 
	C84.692909,1.000000 88.385818,1.000000 92.539368,1.000000 
z"/>
<path fill="#0C4535" opacity="1.000000" stroke="none" 
	d="
M17.000000,1.000000 
	C25.020899,1.000000 33.041798,1.000000 41.521137,1.385896 
	C41.324516,4.517808 40.669453,7.263824 40.007217,10.384686 
	C39.989292,11.259308 39.978539,11.759086 39.736328,12.506020 
	C37.362846,13.527915 35.220821,14.302652 32.840897,14.882847 
	C32.395271,14.125222 32.187542,13.562140 32.263435,12.851399 
	C33.026283,11.803729 33.505516,10.903716 34.194065,9.806435 
	C34.426544,9.300192 34.520378,8.734586 34.462818,8.718734 
	C29.277321,7.290673 24.054251,5.990344 18.910160,4.429464 
	C18.080452,4.177705 17.598888,2.778598 16.965420,1.682304 
	C16.974445,1.454750 17.000000,1.000000 17.000000,1.000000 
z"/>
<path fill="#17755B" opacity="1.000000" stroke="none" 
	d="
M1.000000,43.000000 
	C1.000000,39.969406 1.000000,36.938812 1.366620,33.448837 
	C5.600028,31.046864 9.466816,29.104273 13.333604,27.161680 
	C13.291759,27.301811 13.249913,27.441940 13.208068,27.582071 
	C15.139757,26.057095 17.071445,24.532120 19.277912,23.293041 
	C19.827995,24.331305 20.103304,25.083670 20.267052,26.139545 
	C17.819706,29.942249 15.483916,33.441441 12.776413,36.966465 
	C9.267579,38.996544 6.130458,41.000790 2.661113,43.004898 
	C1.885926,43.003174 1.442963,43.001587 1.000000,43.000000 
z"/>
<path fill="#106049" opacity="1.000000" stroke="none" 
	d="
M1.000000,27.000000 
	C1.000000,23.969406 1.000000,20.938814 1.234234,17.240402 
	C2.635765,15.676908 3.803063,14.781232 5.165112,14.116713 
	C5.884090,13.556392 6.408316,12.764916 7.060183,11.750887 
	C7.451713,11.315331 7.715601,11.102329 8.061943,11.253866 
	C11.709332,14.266201 14.522046,11.986129 17.322660,10.127703 
	C19.002996,9.012671 20.520311,7.651968 22.110895,6.401679 
	C22.561655,6.797819 23.012413,7.193959 23.463173,7.590099 
	C21.977520,9.724161 20.491867,11.858224 18.829239,14.231790 
	C17.794989,14.978129 16.937717,15.484965 15.720688,16.030907 
	C12.990414,17.799583 10.591140,19.491400 8.257272,21.269087 
	C5.805545,23.136543 3.416459,25.086241 1.000000,27.000000 
z"/>
<path fill="#0D3B2D" opacity="1.000000" stroke="none" 
	d="
M101.000000,50.550022 
	C98.048752,53.785191 95.140656,56.618240 92.127480,59.334740 
	C90.688087,60.632416 89.049286,61.708885 87.148193,62.497162 
	C87.587532,57.402512 88.379478,52.696243 89.518089,47.940376 
	C93.576500,45.927185 97.288246,43.963589 101.000000,42.000000 
	C101.000000,44.700012 101.000000,47.400028 101.000000,50.550022 
z"/>
<path fill="#0F5D46" opacity="1.000000" stroke="none" 
	d="
M16.080444,15.991801 
	C16.937717,15.484965 17.794989,14.978129 19.225628,14.234675 
	C21.359247,13.648170 22.942636,13.377785 24.474932,12.931831 
	C27.659220,12.005088 30.816416,10.985267 33.984749,10.003704 
	C33.505516,10.903716 33.026283,11.803729 31.880512,12.854429 
	C25.710932,14.589960 20.676830,16.747299 19.003134,23.007143 
	C17.071445,24.532120 15.139757,26.057095 13.208068,27.582071 
	C13.249913,27.441940 13.291759,27.301811 13.333604,27.161680 
	C9.466816,29.104273 5.600028,31.046864 1.366620,32.994728 
	C1.000000,32.555557 1.000000,32.111111 1.324266,31.199936 
	C5.098277,28.486000 8.548021,26.238798 12.049660,24.107822 
	C12.101554,24.224051 12.407175,24.245863 12.407175,24.245863 
	C12.407175,24.245863 11.991587,23.997824 12.023256,23.645292 
	C13.396765,20.859108 14.738605,18.425455 16.080444,15.991801 
z"/>
<path fill="#127D5E" opacity="1.000000" stroke="none" 
	d="
M1.000000,43.468529 
	C1.442963,43.001587 1.885926,43.003174 3.012004,43.054432 
	C5.129302,45.733749 6.563485,48.363392 7.831848,51.296345 
	C6.806009,53.367149 5.945992,55.134647 5.064784,57.261375 
	C5.413574,58.438213 5.783555,59.255814 6.099081,60.467308 
	C5.959486,61.912727 5.874345,62.964256 5.390213,64.022385 
	C3.660815,64.019318 2.330408,64.009659 1.000000,64.000000 
	C1.000000,57.312355 1.000000,50.624710 1.000000,43.468529 
z"/>
<path fill="#0C3629" opacity="1.000000" stroke="none" 
	d="
M66.000000,0.999999 
	C68.370560,1.000000 70.741112,1.000000 73.554382,1.391138 
	C73.205582,4.059468 72.462868,6.355154 71.608681,8.608584 
	C70.775009,10.807908 69.827469,12.964070 68.576935,15.110661 
	C66.125458,14.136651 64.026970,13.191162 61.984009,11.871447 
	C63.359692,7.998147 64.679848,4.499073 66.000000,0.999999 
z"/>
<path fill="#138768" opacity="1.000000" stroke="none" 
	d="
M93.362030,15.386442 
	C94.205437,11.387262 97.404900,12.118726 100.588539,11.996128 
	C101.000000,16.689255 101.000000,21.378511 100.660080,26.506334 
	C98.907249,27.638805 97.494339,28.332708 95.799301,28.980734 
	C94.677528,27.293108 93.837875,25.651356 93.261749,23.741367 
	C97.243637,22.107904 95.703049,18.941750 95.786156,16.414877 
	C95.796547,16.098984 94.209114,15.730538 93.362030,15.386442 
z"/>
<path fill="#051D18" opacity="1.000000" stroke="none" 
	d="
M1.000000,87.474129 
	C3.953047,89.785950 7.017440,92.466080 9.809983,95.404564 
	C11.115206,96.777985 11.894814,98.650917 12.956325,100.648727 
	C9.070314,101.000000 5.140630,101.000000 1.000000,101.000000 
	C1.000000,96.650841 1.000000,92.299553 1.000000,87.474129 
z"/>
<path fill="#071B17" opacity="1.000000" stroke="none" 
	d="
M68.929916,15.139181 
	C69.827469,12.964070 70.775009,10.807908 71.608681,8.608584 
	C72.462868,6.355154 73.205582,4.059468 73.998543,1.391138 
	C76.041664,1.000000 78.083336,1.000000 80.562500,1.000001 
	C80.362137,3.079978 79.724266,5.159955 79.040825,7.598050 
	C76.453186,10.583318 73.911110,13.210467 70.785576,15.963287 
	C69.778046,15.772367 69.353981,15.455775 68.929916,15.139181 
z"/>
<path fill="#060E0D" opacity="1.000000" stroke="none" 
	d="
M49.995743,87.316643 
	C48.233650,89.807999 46.293903,92.196777 44.774532,94.828270 
	C43.827560,96.468399 43.515736,98.475235 42.959435,100.658752 
	C40.958332,101.000000 38.916668,101.000000 36.432762,100.653366 
	C35.661842,99.216507 35.333153,98.126282 35.274517,96.889481 
	C36.367317,96.161659 37.190063,95.580391 38.347702,94.956604 
	C39.455967,93.946571 40.229340,92.979080 41.280998,91.853058 
	C43.046852,90.189697 44.534424,88.684860 46.415161,87.093933 
	C47.870800,87.110771 48.933270,87.213707 49.995743,87.316643 
z"/>
<path fill="#143F30" opacity="1.000000" stroke="none" 
	d="
M96.081436,29.026609 
	C97.494339,28.332708 98.907249,27.638805 100.660080,26.972450 
	C101.000000,30.692909 101.000000,34.385818 100.630493,38.533710 
	C96.589363,40.666500 92.917747,42.344307 89.261871,43.677788 
	C90.025230,42.278820 90.562408,40.616177 91.556015,40.272282 
	C96.479202,38.568348 96.338333,34.810963 95.941307,30.510674 
	C96.040390,29.826105 96.060913,29.426357 96.081436,29.026609 
z"/>
<path fill="#0B2E24" opacity="1.000000" stroke="none" 
	d="
M39.967781,12.258862 
	C39.978539,11.759086 39.989292,11.259308 40.338066,10.319300 
	C42.784058,6.919378 44.892029,3.959689 47.000000,1.000000 
	C49.042316,1.000000 51.084637,1.000000 53.595329,1.365839 
	C52.332932,4.724617 50.602161,7.717554 48.484886,10.836881 
	C45.388187,11.395134 42.677986,11.826998 39.967781,12.258862 
z"/>
<path fill="#0F4333" opacity="1.000000" stroke="none" 
	d="
M1.000000,64.458069 
	C2.330408,64.009659 3.660815,64.019318 5.461624,64.420525 
	C5.795210,69.501450 8.479083,66.221725 9.977448,66.603119 
	C9.969362,69.181297 9.976175,71.405594 9.708374,73.834152 
	C8.399402,74.494461 7.365044,74.950508 6.330687,75.406548 
	C4.784482,75.174500 3.238277,74.942459 1.346036,74.855209 
	C1.000000,71.638710 1.000000,68.277428 1.000000,64.458069 
z"/>
<path fill="#0A3124" opacity="1.000000" stroke="none" 
	d="
M87.474129,101.000000 
	C91.433708,98.031219 95.867424,95.062447 100.650566,92.046837 
	C101.000000,94.940231 101.000000,97.880463 101.000000,101.000000 
	C96.650436,101.000000 92.299347,101.000000 87.474129,101.000000 
z"/>
<path fill="#0B1B15" opacity="1.000000" stroke="none" 
	d="
M16.539364,1.000000 
	C17.000000,1.000000 16.974445,1.454750 16.698109,1.880402 
	C13.906588,4.505595 11.391404,6.705136 8.513664,8.915461 
	C6.757139,7.926303 5.363172,6.926363 4.013391,5.736526 
	C4.057578,5.546630 4.119693,5.161671 4.400191,4.917074 
	C4.787127,3.448318 4.893563,2.224159 5.000000,1.000000 
	C8.692909,1.000000 12.385818,1.000000 16.539364,1.000000 
z"/>
<path fill="#117B5C" opacity="1.000000" stroke="none" 
	d="
M15.720688,16.030907 
	C14.738605,18.425455 13.396765,20.859108 12.027605,23.646515 
	C12.000284,24.000269 11.997765,23.991592 11.997765,23.991592 
	C8.548021,26.238798 5.098277,28.486000 1.324266,30.866602 
	C1.000000,29.933331 1.000000,28.866661 1.000000,27.399996 
	C3.416459,25.086241 5.805545,23.136543 8.257272,21.269087 
	C10.591140,19.491400 12.990414,17.799583 15.720688,16.030907 
z"/>
<path fill="#0D3C2E" opacity="1.000000" stroke="none" 
	d="
M58.000000,1.000000 
	C59.388996,1.000000 60.777996,1.000000 62.582405,1.403512 
	C61.998234,5.143100 60.998650,8.479175 59.634418,11.844585 
	C57.832630,11.550923 56.395489,11.227925 54.969887,10.529692 
	C55.987614,7.102972 56.993805,4.051486 58.000000,1.000000 
z"/>
<path fill="#07251D" opacity="1.000000" stroke="none" 
	d="
M89.246132,44.022114 
	C92.917747,42.344307 96.589363,40.666500 100.630493,38.994347 
	C101.000000,39.750000 101.000000,40.500000 101.000000,41.625000 
	C97.288246,43.963589 93.576500,45.927185 89.440804,47.545792 
	C89.093277,46.141239 89.169708,45.081680 89.246132,44.022114 
z"/>
<path fill="#136954" opacity="1.000000" stroke="none" 
	d="
M57.600006,1.000000 
	C56.993805,4.051486 55.987614,7.102972 54.544106,10.607316 
	C52.361656,10.943613 50.616520,10.827052 48.871387,10.710491 
	C50.602161,7.717554 52.332932,4.724617 54.031853,1.365839 
	C55.066669,1.000000 56.133339,1.000000 57.600006,1.000000 
z"/>
<path fill="#192F22" opacity="1.000000" stroke="none" 
	d="
M3.969205,5.926423 
	C5.363172,6.926363 6.757139,7.926303 8.434666,9.178502 
	C8.471980,9.916950 8.225735,10.403140 7.979490,10.889329 
	C7.715601,11.102329 7.451713,11.315331 6.811271,11.878542 
	C5.946599,12.781020 5.458479,13.333288 4.970360,13.885557 
	C3.803063,14.781232 2.635765,15.676908 1.234234,16.786291 
	C1.000000,13.969407 1.000000,10.938814 1.325032,7.457861 
	C2.423111,6.647142 3.196158,6.286782 3.969205,5.926423 
z"/>
<path fill="#0A392A" opacity="1.000000" stroke="none" 
	d="
M46.583336,1.000000 
	C44.892029,3.959689 42.784058,6.919378 40.345242,9.944453 
	C40.669453,7.263824 41.324516,4.517808 41.989788,1.385896 
	C43.388889,1.000000 44.777779,1.000000 46.583336,1.000000 
z"/>
<path fill="#07271F" opacity="1.000000" stroke="none" 
	d="
M59.999069,11.815249 
	C60.998650,8.479175 61.998234,5.143100 62.998909,1.403512 
	C63.750000,1.000000 64.500000,1.000000 65.625000,0.999999 
	C64.679848,4.499073 63.359692,7.998147 61.651180,11.860633 
	C60.841572,12.087780 60.420319,11.951515 59.999069,11.815249 
z"/>
<path fill="#1F2F22" opacity="1.000000" stroke="none" 
	d="
M56.959335,99.653221 
	C57.036053,100.147491 57.027119,100.317917 57.009090,100.744171 
	C55.933331,101.000000 54.866661,101.000000 53.399994,101.000000 
	C53.515480,98.644402 54.338791,97.002563 56.959335,99.653221 
z"/>
<path fill="#B3B166" opacity="1.000000" stroke="none" 
	d="
M4.013391,5.736526 
	C3.196158,6.286782 2.423111,6.647142 1.325032,7.003751 
	C1.000000,6.250000 1.000000,5.500000 1.290340,4.523411 
	C1.991907,4.163052 2.403134,4.029280 3.085945,4.045521 
	C3.611583,4.517579 3.865638,4.839625 4.119693,5.161671 
	C4.119693,5.161671 4.057578,5.546630 4.013391,5.736526 
z"/>
<path fill="#081511" opacity="1.000000" stroke="none" 
	d="
M35.004463,97.036049 
	C35.333153,98.126282 35.661842,99.216507 35.995262,100.653366 
	C35.555553,101.000000 35.111111,101.000000 34.333332,101.000000 
	C34.004627,99.914352 34.009251,98.828697 34.264698,97.364922 
	C34.515522,96.986794 35.004463,97.036049 35.004463,97.036049 
z"/>
<path fill="#9B9C55" opacity="1.000000" stroke="none" 
	d="
M4.400191,4.917074 
	C3.865638,4.839625 3.611583,4.517579 3.160995,3.682318 
	C2.976308,2.446070 2.988154,1.723035 3.000000,1.000000 
	C3.444444,1.000000 3.888889,1.000000 4.666667,1.000000 
	C4.893563,2.224159 4.787127,3.448318 4.400191,4.917074 
z"/>
<path fill="#2D5431" opacity="1.000000" stroke="none" 
	d="
M2.500000,1.000000 
	C2.988154,1.723035 2.976308,2.446070 2.889411,3.532307 
	C2.403134,4.029280 1.991907,4.163052 1.290340,4.148411 
	C1.333333,3.000000 1.666667,2.000000 2.500000,1.000000 
z"/>
<path fill="#F4F6F6" opacity="1.000000" stroke="none" 
	d="
M89.261871,43.677792 
	C89.169708,45.081680 89.093277,46.141239 89.094139,47.595387 
	C88.379478,52.696243 87.587532,57.402512 86.792603,62.508717 
	C83.521660,67.657158 80.253708,72.405663 76.598389,77.547958 
	C72.358215,80.232727 68.505402,82.523697 64.652580,84.814667 
	C60.056210,85.576553 55.459843,86.338440 50.429607,87.208481 
	C48.933270,87.213707 47.870800,87.110771 46.058540,86.931213 
	C40.934528,85.385101 36.560303,83.915611 31.983326,82.236038 
	C30.948526,81.058098 30.116482,80.090225 29.598026,79.102364 
	C30.964994,78.455605 32.018375,77.828835 33.354034,77.159058 
	C34.531010,76.823059 35.425705,76.530067 36.590656,76.510544 
	C39.530628,77.605659 42.200340,78.427315 45.161255,79.457840 
	C46.635685,79.727760 47.818913,79.788803 49.252625,79.919113 
	C49.670681,79.944702 49.838257,79.901016 50.306957,79.941238 
	C51.432171,79.963852 52.256268,79.902565 53.238785,79.901550 
	C53.397209,79.961815 53.690632,79.792046 54.114517,79.840729 
	C55.341690,79.663788 56.144974,79.438171 57.349567,79.249001 
	C66.234169,77.418396 72.809502,72.892303 77.474892,65.148949 
	C78.136772,63.979446 78.527885,62.988041 79.079247,61.838657 
	C79.239502,61.680676 79.319641,61.237812 79.572678,60.997673 
	C80.497612,57.495560 81.169510,54.233582 81.931221,50.581196 
	C82.021042,48.624340 82.021042,47.057892 82.021042,44.662891 
	C75.861870,48.018852 70.423569,50.982037 64.689453,53.963726 
	C63.921021,54.300613 63.448395,54.618996 62.630749,54.957005 
	C61.288963,55.528484 60.292202,56.080345 58.972168,56.732338 
	C49.002033,61.838718 39.355171,66.844971 29.370296,71.878151 
	C27.280409,72.891624 25.528528,73.878174 23.461357,74.900032 
	C22.073887,75.551064 21.001711,76.166794 19.589718,76.846336 
	C17.495110,77.890564 15.740317,78.870979 13.671440,79.869553 
	C12.853183,80.207268 12.349010,80.526825 11.844838,80.846382 
	C10.097961,81.593452 8.351084,82.340530 6.097117,83.304466 
	C6.097117,80.616722 6.097117,78.415451 6.213902,75.810364 
	C7.365044,74.950508 8.399402,74.494461 10.022183,73.750504 
	C12.067507,72.605240 13.524405,71.747887 15.310236,70.874138 
	C17.120447,69.980797 18.601727,69.103844 20.405951,68.176117 
	C21.856569,67.510193 22.984241,66.895027 24.469231,66.219032 
	C27.314651,64.494034 29.802759,62.829868 32.661819,61.160397 
	C36.088997,59.793209 39.145210,58.431324 42.546986,57.015442 
	C45.929516,55.310680 48.966488,53.659916 52.359795,51.956379 
	C58.138016,49.083405 63.559906,46.263199 69.343765,43.332886 
	C73.923111,41.108593 78.106346,38.922447 82.367264,36.899986 
	C86.826874,34.783218 91.361122,32.823730 95.862747,30.795490 
	C96.338333,34.810963 96.479202,38.568348 91.556015,40.272282 
	C90.562408,40.616177 90.025230,42.278820 89.261871,43.677792 
z"/>
<path fill="#1F2F22" opacity="1.000000" stroke="none" 
	d="
M64.920288,85.012100 
	C68.505402,82.523697 72.358215,80.232727 76.566162,77.893661 
	C77.426132,78.920174 77.732124,80.166534 78.479424,81.031693 
	C79.812233,82.574707 81.411667,83.887421 82.964867,85.640381 
	C81.675896,85.946472 80.316986,85.966431 78.968498,85.857475 
	C76.848007,85.686142 74.734528,85.428017 72.337051,85.124771 
	C69.228889,87.241127 66.401756,89.439354 63.268559,91.768509 
	C63.704338,89.669464 64.446167,87.439499 64.920288,85.012100 
z"/>
<path fill="#F4F8F7" opacity="1.000000" stroke="none" 
	d="
M59.634418,11.844585 
	C60.420319,11.951515 60.841572,12.087780 61.595650,12.234859 
	C64.026970,13.191162 66.125458,14.136651 68.576935,15.110662 
	C69.353981,15.455775 69.778046,15.772367 70.473679,16.129150 
	C71.328835,16.887749 71.912422,17.606153 72.682037,18.553558 
	C70.341110,19.678688 68.219742,20.698292 65.529106,21.485104 
	C60.654633,20.557341 56.349426,19.862371 52.044220,19.167400 
	C50.289856,18.891285 48.535492,18.615170 45.952454,18.480846 
	C43.048923,19.240011 40.974068,19.857386 38.703777,20.483360 
	C38.270939,20.617435 38.083427,20.795458 37.975338,21.030155 
	C38.004868,21.034285 38.014278,20.975395 37.664536,21.017525 
	C24.285076,28.347059 17.764565,40.591927 20.619707,52.683273 
	C21.469721,52.165188 22.269508,51.677711 23.394993,51.147491 
	C24.832743,50.469772 25.944796,49.834805 27.348408,49.162987 
	C28.097300,48.792526 28.554632,48.458912 29.368351,48.070789 
	C32.243595,46.627903 34.762455,45.239525 37.613556,43.804131 
	C40.167900,42.595455 42.389992,41.433800 44.612087,40.272141 
	C60.261436,32.367081 75.910782,24.462023 92.051956,16.297199 
	C92.804474,15.821389 93.065163,15.605345 93.325851,15.389299 
	C93.325851,15.389298 93.341415,15.362900 93.351723,15.374671 
	C94.209114,15.730538 95.796547,16.098984 95.786156,16.414877 
	C95.703049,18.941750 97.243637,22.107904 92.910469,23.773331 
	C88.826546,25.948341 85.357414,27.823149 81.534370,29.779751 
	C72.778023,34.202305 64.375603,38.543064 55.667610,42.910088 
	C54.866104,43.264507 54.370171,43.592659 53.914139,43.935833 
	C53.954044,43.950855 53.931587,43.868591 53.572838,43.913910 
	C49.489597,45.972706 45.765106,47.986183 41.691319,50.054626 
	C38.991417,51.414085 36.640812,52.718586 33.951653,54.062401 
	C31.808001,55.040062 30.002903,55.978413 27.858522,57.004684 
	C25.914013,57.999012 24.308790,58.905426 22.395504,59.842552 
	C21.399260,60.306358 20.711073,60.739445 19.698608,61.208549 
	C17.897600,62.106236 16.420870,62.967903 14.616167,63.864906 
	C13.516583,64.307915 12.744971,64.715591 11.699004,65.114029 
	C11.199401,65.377968 10.974153,65.651138 10.531441,65.939590 
	C10.313975,65.954872 9.992349,66.249237 9.992349,66.249237 
	C8.479083,66.221725 5.795210,69.501450 5.860614,64.413925 
	C5.874345,62.964256 5.959486,61.912727 6.330523,60.392933 
	C6.882497,59.702816 7.022202,59.418804 7.398697,59.032436 
	C8.705551,57.678223 9.728889,56.412586 10.566341,55.034019 
	C11.175741,54.030861 11.539645,52.878571 12.261323,51.826500 
	C12.585644,51.578388 12.661643,51.296539 12.803476,50.641151 
	C12.830471,49.511265 12.791633,48.754917 12.842678,47.579346 
	C13.004416,43.753632 13.076271,40.347130 13.148127,36.940632 
	C15.483916,33.441441 17.819706,29.942249 20.555622,25.942062 
	C24.996767,21.986509 29.037783,18.531950 33.078796,15.077390 
	C35.220821,14.302652 37.362846,13.527915 39.736328,12.506020 
	C42.677986,11.826998 45.388187,11.395134 48.484886,10.836881 
	C50.616520,10.827052 52.361656,10.943613 54.532570,10.982550 
	C56.395489,11.227925 57.832630,11.550923 59.634418,11.844585 
z"/>
<path fill="#08201B" opacity="1.000000" stroke="none" 
	d="
M52.025459,19.532085 
	C56.349426,19.862371 60.654633,20.557341 65.203186,21.556108 
	C60.282738,25.752127 55.118950,29.644348 49.387081,33.964764 
	C46.439232,27.666925 50.957535,24.141434 52.025459,19.532085 
z"/>
<path fill="#138165" opacity="1.000000" stroke="none" 
	d="
M38.899212,20.474762 
	C40.974068,19.857386 43.048923,19.240011 45.535370,18.662779 
	C43.961937,22.560427 41.976917,26.417933 39.687935,30.898232 
	C38.693623,34.720497 38.003269,37.919975 36.987854,40.855072 
	C36.662788,37.322319 36.662788,34.053944 36.662788,30.499495 
	C35.230171,31.073507 34.097366,31.527393 32.956860,31.651184 
	C32.962292,30.880941 32.975426,30.440796 33.152313,29.697369 
	C34.882137,26.587856 36.448208,23.781626 38.014278,20.975395 
	C38.014278,20.975395 38.004868,21.034285 38.113548,20.905117 
	C38.431423,20.638535 38.657085,20.538137 38.899212,20.474762 
z"/>
<path fill="#0D4937" opacity="1.000000" stroke="none" 
	d="
M37.312916,41.119450 
	C38.003269,37.919975 38.693623,34.720497 39.630119,31.252304 
	C45.322159,31.212690 46.048256,32.336262 44.147861,37.343346 
	C43.860111,38.101494 44.031822,39.034027 44.301552,40.079018 
	C42.389992,41.433800 40.167900,42.595455 37.602852,43.462288 
	C37.277569,42.484787 37.295242,41.802120 37.312916,41.119450 
z"/>
<path fill="#138768" opacity="1.000000" stroke="none" 
	d="
M93.055527,15.356359 
	C93.065163,15.605345 92.804474,15.821389 92.278130,16.039288 
	C92.270058,15.801902 92.527634,15.562660 93.055527,15.356359 
z"/>
<path fill="#0F2E25" opacity="1.000000" stroke="none" 
	d="
M32.186081,82.446121 
	C36.560303,83.915611 40.934528,85.385101 45.665375,87.017303 
	C44.534424,88.684860 43.046852,90.189697 40.965317,91.852066 
	C39.950577,92.005402 39.529797,92.001198 38.873360,92.110306 
	C38.424221,92.492592 38.210747,92.761566 37.999039,93.014542 
	C38.000801,92.998543 38.033951,93.012222 37.634018,93.017853 
	C32.668865,94.679115 29.300625,93.854492 26.356096,89.443909 
	C24.919680,87.292313 21.495899,86.467491 18.971691,85.042114 
	C18.971691,85.042114 19.000568,85.009239 18.830006,84.705986 
	C17.386055,83.942940 16.112669,83.483139 14.839283,83.023338 
	C14.569617,82.926750 14.347843,82.764648 14.089251,81.965919 
	C13.998202,80.880333 13.991864,80.365860 13.985525,79.851387 
	C15.740317,78.870979 17.495110,77.890564 19.649031,77.211838 
	C23.459238,79.601402 26.845360,81.733528 30.326761,83.696701 
	C30.618650,83.861298 31.551189,82.889801 32.186081,82.446121 
M28.856447,85.287964 
	C28.945158,85.287674 29.033867,85.287392 28.856447,85.287964 
z"/>
<path fill="#144536" opacity="1.000000" stroke="none" 
	d="
M19.018909,85.381889 
	C21.495899,86.467491 24.919680,87.292313 26.356096,89.443909 
	C29.300625,93.854492 32.668865,94.679115 37.617081,93.348709 
	C38.004326,94.115669 38.008568,94.557396 38.012810,94.999130 
	C37.190063,95.580391 36.367317,96.161659 35.274517,96.889481 
	C35.004463,97.036049 34.515522,96.986794 34.271652,96.957855 
	C26.335686,96.804176 24.816082,88.439171 19.018909,85.381889 
z"/>
<path fill="#144536" opacity="1.000000" stroke="none" 
	d="
M15.047608,83.303940 
	C16.112669,83.483139 17.386055,83.942940 18.814394,84.717743 
	C17.731543,84.550018 16.493738,84.067284 15.047608,83.303940 
z"/>
<path fill="#144536" opacity="1.000000" stroke="none" 
	d="
M13.671440,79.869553 
	C13.991864,80.365860 13.998202,80.880333 13.989244,81.783195 
	C13.445313,81.832649 12.916681,81.493713 12.116444,81.000580 
	C12.349010,80.526825 12.853183,80.207268 13.671440,79.869553 
z"/>
<path fill="#1F2F22" opacity="1.000000" stroke="none" 
	d="
M60.540924,93.960892 
	C61.773575,97.429184 61.773575,97.429184 59.136600,96.993408 
	C59.307499,95.926277 59.770737,95.001060 60.540924,93.960892 
z"/>
<path fill="#1F2F22" opacity="1.000000" stroke="none" 
	d="
M62.710308,92.116837 
	C62.816959,92.324234 62.630066,92.573471 62.120224,92.825394 
	C62.067993,92.647591 62.274483,92.424454 62.710308,92.116837 
z"/>
<path fill="#0F523D" opacity="1.000000" stroke="none" 
	d="
M8.061944,11.253866 
	C8.225735,10.403140 8.471980,9.916950 8.797222,9.167719 
	C11.391404,6.705136 13.906588,4.505595 16.689083,2.107956 
	C17.598888,2.778598 18.080452,4.177705 18.910160,4.429464 
	C24.054251,5.990344 29.277321,7.290673 34.462818,8.718734 
	C34.520378,8.734586 34.426544,9.300192 34.194065,9.806435 
	C30.816416,10.985267 27.659220,12.005088 24.474932,12.931831 
	C22.942636,13.377785 21.359247,13.648170 19.402603,13.995173 
	C20.491867,11.858224 21.977520,9.724161 23.463173,7.590099 
	C23.012413,7.193959 22.561655,6.797819 22.110895,6.401679 
	C20.520311,7.651968 19.002996,9.012671 17.322660,10.127703 
	C14.522046,11.986129 11.709332,14.266201 8.061944,11.253866 
z"/>
<path fill="#126750" opacity="1.000000" stroke="none" 
	d="
M32.840897,14.882847 
	C29.037783,18.531950 24.996767,21.986509 20.667181,25.638554 
	C20.103304,25.083670 19.827995,24.331305 19.277910,23.293039 
	C20.676830,16.747299 25.710932,14.589960 31.596891,13.002087 
	C32.187542,13.562140 32.395271,14.125222 32.840897,14.882847 
z"/>
<path fill="#126D52" opacity="1.000000" stroke="none" 
	d="
M12.776413,36.966465 
	C13.076271,40.347130 13.004416,43.753632 12.531076,47.638386 
	C10.752283,49.075439 9.374976,50.034237 7.997668,50.993038 
	C6.563485,48.363392 5.129302,45.733749 3.344228,43.054569 
	C6.130458,41.000790 9.267579,38.996544 12.776413,36.966465 
z"/>
<path fill="#0F523D" opacity="1.000000" stroke="none" 
	d="
M5.165112,14.116713 
	C5.458479,13.333288 5.946599,12.781020 6.683630,12.101096 
	C6.408316,12.764916 5.884090,13.556392 5.165112,14.116713 
z"/>
<path fill="#17755B" opacity="1.000000" stroke="none" 
	d="
M11.995935,23.999046 
	C11.991587,23.997824 12.407175,24.245863 12.407175,24.245863 
	C12.407175,24.245863 12.101554,24.224051 12.049660,24.107822 
	C11.997765,23.991592 12.000284,24.000269 11.995935,23.999046 
z"/>
<path fill="#0B4B39" opacity="1.000000" stroke="none" 
	d="
M7.831848,51.296345 
	C9.374976,50.034237 10.752283,49.075439 12.441193,48.057602 
	C12.791633,48.754917 12.830471,49.511265 12.641912,50.727684 
	C12.223977,51.351788 12.090139,51.553459 12.013002,51.792767 
	C11.539645,52.878571 11.175741,54.030861 10.566341,55.034019 
	C9.728889,56.412586 8.705551,57.678223 7.338450,58.717239 
	C6.305351,57.928871 5.695663,57.415508 5.085975,56.902145 
	C5.945992,55.134647 6.806009,53.367149 7.831848,51.296345 
z"/>
<path fill="#126D52" opacity="1.000000" stroke="none" 
	d="
M5.064785,57.261375 
	C5.695663,57.415508 6.305351,57.928871 6.975286,58.757431 
	C7.022202,59.418804 6.882497,59.702816 6.384976,59.999043 
	C5.783555,59.255814 5.413574,58.438213 5.064785,57.261375 
z"/>
<path fill="#1E9473" opacity="1.000000" stroke="none" 
	d="
M81.888290,29.697956 
	C85.357414,27.823149 88.826546,25.948341 92.646950,24.041571 
	C93.837875,25.651356 94.677528,27.293108 95.799301,28.980734 
	C96.060913,29.426357 96.040390,29.826105 95.941307,30.510672 
	C91.361122,32.823730 86.826874,34.783218 82.367264,36.899986 
	C78.106346,38.922447 73.923111,41.108593 69.351631,42.930553 
	C70.022469,41.079044 70.798485,39.254131 72.122208,38.013718 
	C75.238594,35.093483 78.616302,32.452133 81.888290,29.697956 
M90.561325,30.512157 
	C90.561325,30.512157 90.480942,30.554276 90.561325,30.512157 
z"/>
<path fill="#081511" opacity="1.000000" stroke="none" 
	d="
M38.347702,94.956604 
	C38.008568,94.557396 38.004326,94.115669 38.017017,93.343079 
	C38.033951,93.012222 38.000801,92.998543 38.226288,92.892120 
	C38.670856,92.522789 38.889935,92.259888 39.109016,91.996986 
	C39.529797,92.001198 39.950577,92.005402 40.687035,92.010597 
	C40.229340,92.979080 39.455967,93.946571 38.347702,94.956604 
z"/>
<path fill="#14533F" opacity="1.000000" stroke="none" 
	d="
M11.973360,65.123260 
	C12.744971,64.715591 13.516583,64.307915 14.631335,64.307678 
	C14.976750,66.773582 14.979026,68.832062 14.981302,70.890533 
	C13.524405,71.747887 12.067507,72.605240 10.296799,73.546234 
	C9.976175,71.405594 9.969362,69.181297 9.977448,66.603119 
	C9.992349,66.249237 10.313975,65.954872 10.768679,65.859558 
	C11.473374,65.550583 11.723367,65.336922 11.973360,65.123260 
z"/>
<path fill="#114A38" opacity="1.000000" stroke="none" 
	d="
M29.708307,71.851219 
	C39.355171,66.844971 49.002033,61.838718 59.316666,56.893158 
	C62.308735,58.250526 63.072617,57.232380 62.975773,54.937382 
	C63.448395,54.618996 63.921021,54.300613 64.694267,54.382698 
	C66.252762,59.897522 62.133133,61.088673 58.944641,62.694477 
	C57.398857,62.954983 55.560539,63.145363 54.477497,64.149979 
	C49.062366,69.172966 44.660301,75.623436 36.320396,76.237083 
	C35.425705,76.530067 34.531010,76.823059 33.299118,76.799614 
	C31.877378,74.939194 30.792843,73.395203 29.708307,71.851219 
z"/>
<path fill="#104132" opacity="1.000000" stroke="none" 
	d="
M59.000366,62.999794 
	C62.133133,61.088673 66.252762,59.897522 64.990074,54.364193 
	C70.423569,50.982037 75.861870,48.018852 82.021042,44.662891 
	C82.021042,47.057892 82.021042,48.624340 81.562241,50.587448 
	C79.044098,52.672230 76.984756,54.360344 74.566177,56.045692 
	C71.435280,59.033096 68.663628,62.023258 65.709564,65.122055 
	C65.300003,65.409782 65.128487,65.631866 64.718964,66.068130 
	C61.271954,69.504189 58.118595,72.769051 54.966858,75.689430 
	C54.187046,74.882225 52.757877,73.965652 52.718006,74.022552 
	C51.397270,75.907455 50.209484,77.885513 49.002140,79.849854 
	C47.818913,79.788803 46.635685,79.727760 45.316826,79.143158 
	C49.787586,73.413010 54.393978,68.206398 59.000366,62.999794 
M58.270512,68.486084 
	C58.011311,68.732780 57.749565,68.977112 57.506470,69.238770 
	C57.499870,69.245865 57.694496,69.439926 57.795288,69.546799 
	C58.054306,69.300034 58.313328,69.053276 58.270512,68.486084 
M62.488380,63.564369 
	C62.488380,63.564369 62.445091,63.482040 62.488380,63.564369 
z"/>
<path fill="#1B9F7B" opacity="1.000000" stroke="none" 
	d="
M81.534370,29.779751 
	C78.616302,32.452133 75.238594,35.093483 72.122208,38.013718 
	C70.798485,39.254131 70.022469,41.079044 68.989670,43.040657 
	C63.559906,46.263199 58.138016,49.083405 52.317532,51.611111 
	C51.605526,50.207939 51.292118,49.097271 51.143063,47.698502 
	C52.182137,46.229801 53.056858,45.049194 53.931587,43.868591 
	C53.931587,43.868591 53.954044,43.950855 54.228645,43.927170 
	C54.993225,43.563595 55.483200,43.223709 55.973175,42.883820 
	C64.375603,38.543064 72.778023,34.202305 81.534370,29.779751 
z"/>
<path fill="#0D1514" opacity="1.000000" stroke="none" 
	d="
M77.204124,65.327042 
	C72.809502,72.892303 66.234169,77.418396 57.494576,78.934219 
	C59.826828,75.395073 62.415379,72.207161 65.304527,68.854797 
	C69.117134,66.347290 72.008522,61.863884 77.204124,65.327042 
z"/>
<path fill="#18A480" opacity="1.000000" stroke="none" 
	d="
M50.978714,47.986599 
	C51.292118,49.097271 51.605526,50.207939 51.961197,51.663879 
	C48.966488,53.659916 45.929516,55.310680 42.117168,56.995583 
	C38.991264,56.027504 36.640736,55.025295 34.290207,54.023087 
	C36.640812,52.718586 38.991417,51.414085 42.090912,50.054684 
	C45.552773,49.328720 48.265743,48.657658 50.978714,47.986599 
z"/>
<path fill="#12543F" opacity="1.000000" stroke="none" 
	d="
M58.944641,62.694477 
	C54.393978,68.206398 49.787586,73.413010 45.025627,78.934296 
	C42.200340,78.427315 39.530628,77.605659 36.590656,76.510544 
	C44.660301,75.623436 49.062366,69.172966 54.477497,64.149979 
	C55.560539,63.145363 57.398857,62.954983 58.944641,62.694477 
z"/>
<path fill="#17624D" opacity="1.000000" stroke="none" 
	d="
M22.703568,59.811836 
	C24.308790,58.905426 25.914013,57.999012 28.163157,57.109802 
	C29.968340,58.473236 31.129604,59.819469 32.290863,61.165703 
	C29.802759,62.829868 27.314651,64.494034 24.444956,65.780144 
	C23.610100,63.538670 23.156834,61.675255 22.703568,59.811836 
z"/>
<path fill="#11392D" opacity="1.000000" stroke="none" 
	d="
M31.983328,82.236046 
	C31.551189,82.889801 30.618650,83.861298 30.326761,83.696701 
	C26.845360,81.733528 23.459238,79.601402 19.988846,77.148026 
	C21.001711,76.166794 22.073887,75.551064 23.770218,75.064987 
	C26.024393,76.503876 27.654415,77.813118 29.284437,79.122360 
	C30.116482,80.090225 30.948526,81.058098 31.983328,82.236046 
z"/>
<path fill="#1D6450" opacity="1.000000" stroke="none" 
	d="
M74.925415,56.048454 
	C76.984756,54.360344 79.044098,52.672230 81.472420,50.977859 
	C81.169510,54.233582 80.497612,57.495560 79.327301,60.718842 
	C77.527725,59.136253 76.226570,57.592354 74.925415,56.048454 
z"/>
<path fill="#1B9877" opacity="1.000000" stroke="none" 
	d="
M32.661823,61.160400 
	C31.129604,59.819469 29.968340,58.473236 28.502441,57.021885 
	C30.002903,55.978413 31.808001,55.040062 33.951653,54.062401 
	C36.640736,55.025295 38.991264,56.027504 41.771610,57.049580 
	C39.145210,58.431324 36.088997,59.793209 32.661823,61.160400 
z"/>
<path fill="#08271E" opacity="1.000000" stroke="none" 
	d="
M65.003922,69.019249 
	C62.415379,72.207161 59.826828,75.395073 57.093269,78.897774 
	C56.144974,79.438171 55.341690,79.663788 54.195351,79.438675 
	C54.223278,78.003281 54.594261,77.018600 54.965240,76.033920 
	C58.118595,72.769051 61.271954,69.504189 64.719543,66.460266 
	C65.010483,67.460548 65.007202,68.239899 65.003922,69.019249 
z"/>
<path fill="#08271E" opacity="1.000000" stroke="none" 
	d="
M74.566177,56.045696 
	C76.226570,57.592354 77.527725,59.136253 79.074257,60.958984 
	C79.319641,61.237812 79.239502,61.680676 78.696098,61.778320 
	C75.794098,61.800163 73.327873,61.266785 71.109825,61.788502 
	C69.222130,62.232517 67.620285,63.891796 65.891975,65.013420 
	C68.663628,62.023258 71.435280,59.033096 74.566177,56.045696 
z"/>
<path fill="#11362C" opacity="1.000000" stroke="none" 
	d="
M65.709564,65.122055 
	C67.620285,63.891796 69.222130,62.232517 71.109825,61.788502 
	C73.327873,61.266785 75.794098,61.800163 78.535843,61.936302 
	C78.527885,62.988041 78.136772,63.979446 77.474892,65.148949 
	C72.008522,61.863884 69.117134,66.347290 65.304520,68.854797 
	C65.007202,68.239899 65.010483,67.460548 65.013191,66.289070 
	C65.128487,65.631866 65.300003,65.409782 65.709564,65.122055 
z"/>
<path fill="#155843" opacity="1.000000" stroke="none" 
	d="
M29.598026,79.102364 
	C27.654415,77.813118 26.024393,76.503876 24.085510,75.029678 
	C25.528528,73.878174 27.280409,72.891624 29.370296,71.878151 
	C30.792843,73.395203 31.877378,74.939194 33.016834,76.842621 
	C32.018375,77.828835 30.964994,78.455605 29.598026,79.102364 
z"/>
<path fill="#17644D" opacity="1.000000" stroke="none" 
	d="
M15.310236,70.874138 
	C14.979026,68.832062 14.976750,66.773582 14.959307,64.272339 
	C16.420870,62.967903 17.897600,62.106236 19.698614,61.647217 
	C20.042934,64.108871 20.062969,66.167885 20.083004,68.226891 
	C18.601727,69.103844 17.120447,69.980797 15.310236,70.874138 
z"/>
<path fill="#114F3D" opacity="1.000000" stroke="none" 
	d="
M20.405951,68.176117 
	C20.062969,66.167885 20.042934,64.108871 20.022892,61.611198 
	C20.711073,60.739445 21.399260,60.306358 22.395506,59.842556 
	C23.156834,61.675255 23.610100,63.538670 24.087641,65.840973 
	C22.984241,66.895027 21.856569,67.510193 20.405951,68.176117 
z"/>
<path fill="#082D22" opacity="1.000000" stroke="none" 
	d="
M54.966862,75.689430 
	C54.594261,77.018600 54.223278,78.003281 53.771461,79.389999 
	C53.690632,79.792046 53.397209,79.961815 53.156830,79.590622 
	C51.946247,79.432060 50.976040,79.644699 50.005836,79.857338 
	C49.838257,79.901016 49.670681,79.944702 49.252625,79.919121 
	C50.209484,77.885513 51.397270,75.907455 52.718006,74.022552 
	C52.757877,73.965652 54.187046,74.882225 54.966862,75.689430 
z"/>
<path fill="#12543F" opacity="1.000000" stroke="none" 
	d="
M62.630749,54.957005 
	C63.072617,57.232380 62.308735,58.250526 59.639935,56.793026 
	C60.292202,56.080345 61.288963,55.528484 62.630749,54.957005 
z"/>
<path fill="#104132" opacity="1.000000" stroke="none" 
	d="
M50.306957,79.941238 
	C50.976040,79.644699 51.946247,79.432060 52.998405,79.530350 
	C52.256268,79.902565 51.432171,79.963852 50.306957,79.941238 
z"/>
<path fill="#164F3E" opacity="1.000000" stroke="none" 
	d="
M37.664536,21.017525 
	C36.448208,23.781626 34.882137,26.587856 32.807499,29.761335 
	C30.857990,33.090183 29.417051,36.051781 27.611740,39.068291 
	C25.854679,43.145546 24.461988,47.167892 23.069298,51.190235 
	C22.269508,51.677711 21.469721,52.165188 20.619707,52.683273 
	C17.764565,40.591927 24.285076,28.347059 37.664536,21.017525 
z"/>
<path fill="#149876" opacity="1.000000" stroke="none" 
	d="
M36.987854,40.855072 
	C37.295242,41.802120 37.277569,42.484787 37.270603,43.509300 
	C34.762455,45.239525 32.243595,46.627903 29.348509,47.650055 
	C30.303038,42.182980 31.633799,37.082130 32.964561,31.981277 
	C34.097366,31.527393 35.230171,31.073507 36.662788,30.499495 
	C36.662788,34.053944 36.662788,37.322319 36.987854,40.855072 
z"/>
<path fill="#0D4131" opacity="1.000000" stroke="none" 
	d="
M32.956856,31.651184 
	C31.633799,37.082130 30.303038,42.182980 28.992121,47.704567 
	C28.554632,48.458912 28.097300,48.792526 27.330616,48.722801 
	C27.339548,45.217434 27.657829,42.115410 27.976112,39.013382 
	C29.417051,36.051781 30.857990,33.090183 32.643745,30.064617 
	C32.975426,30.440796 32.962292,30.880941 32.956856,31.651184 
z"/>
<path fill="#125843" opacity="1.000000" stroke="none" 
	d="
M27.611740,39.068291 
	C27.657829,42.115410 27.339548,45.217434 27.039057,48.759651 
	C25.944796,49.834805 24.832743,50.469772 23.394993,51.147491 
	C24.461988,47.167892 25.854679,43.145546 27.611740,39.068291 
z"/>
<path fill="#288C71" opacity="1.000000" stroke="none" 
	d="
M51.143059,47.698502 
	C48.265743,48.657658 45.552773,49.328720 42.440208,49.999725 
	C45.765106,47.986183 49.489597,45.972706 53.572838,43.913910 
	C53.056858,45.049194 52.182137,46.229801 51.143059,47.698502 
z"/>
<path fill="#288C71" opacity="1.000000" stroke="none" 
	d="
M55.667610,42.910088 
	C55.483200,43.223709 54.993225,43.563595 54.188744,43.912148 
	C54.370171,43.592659 54.866104,43.264507 55.667610,42.910088 
z"/>
<path fill="#164F3E" opacity="1.000000" stroke="none" 
	d="
M38.703777,20.483360 
	C38.657085,20.538137 38.431423,20.638535 38.084019,20.900990 
	C38.083427,20.795458 38.270939,20.617435 38.703777,20.483360 
z"/>
<path fill="#126D52" opacity="1.000000" stroke="none" 
	d="
M12.261323,51.826500 
	C12.090139,51.553459 12.223977,51.351788 12.576078,51.101219 
	C12.661643,51.296539 12.585644,51.578388 12.261323,51.826500 
z"/>
<path fill="#0F4333" opacity="1.000000" stroke="none" 
	d="
M11.699005,65.114029 
	C11.723367,65.336922 11.473374,65.550583 10.986143,65.844284 
	C10.974153,65.651138 11.199401,65.377968 11.699005,65.114029 
z"/>
<path fill="#11392D" opacity="1.000000" stroke="none" 
	d="
M28.989513,85.287537 
	C29.033867,85.287392 28.945158,85.287674 28.989513,85.287537 
z"/>
<path fill="#144536" opacity="1.000000" stroke="none" 
	d="
M38.873356,92.110306 
	C38.889935,92.259888 38.670856,92.522789 38.224525,92.908112 
	C38.210747,92.761566 38.424221,92.492592 38.873356,92.110306 
z"/>
<path fill="#138768" opacity="1.000000" stroke="none" 
	d="
M90.521133,30.533216 
	C90.480942,30.554276 90.561325,30.512157 90.521133,30.533216 
z"/>
<path fill="#082D22" opacity="1.000000" stroke="none" 
	d="
M58.421432,68.646301 
	C58.313328,69.053276 58.054306,69.300034 57.795288,69.546799 
	C57.694496,69.439926 57.499870,69.245865 57.506470,69.238770 
	C57.749565,68.977112 58.011311,68.732780 58.421432,68.646301 
z"/>
<path fill="#082D22" opacity="1.000000" stroke="none" 
	d="
M62.466736,63.523205 
	C62.445091,63.482040 62.488380,63.564369 62.466736,63.523205 
z"/>
</svg>